<mxfile modified="2020-11-16T23:01:02.431Z" host="app.diagrams.net" agent="5.0 (Windows NT 10.0; Win64; x64) AppleWebKit/537.36 (KHTML, like Gecko) Chrome/83.0.4103.97 Safari/537.36" etag="kU93tdh8wK61M6UfMb4T" version="13.7.8" type="github">
  <diagram id="Ht1M8jgEwFfnCIfOTk4-" name="Page-1">
    <mxGraphModel dx="1278" dy="548" grid="1" gridSize="10" guides="1" tooltips="1" connect="1" arrows="1" fold="1" page="1" pageScale="1" pageWidth="1169" pageHeight="827" math="0" shadow="0">
      <root>
        <mxCell id="0" />
        <mxCell id="1" parent="0" />
        <object label="AWS Cloud" id="UEzPUAAOIrF-is8g5C7q-74">
          <mxCell style="points=[[0,0],[0.25,0],[0.5,0],[0.75,0],[1,0],[1,0.25],[1,0.5],[1,0.75],[1,1],[0.75,1],[0.5,1],[0.25,1],[0,1],[0,0.75],[0,0.5],[0,0.25]];outlineConnect=0;gradientColor=none;html=1;whiteSpace=wrap;fontSize=12;fontStyle=0;shape=mxgraph.aws4.group;grIcon=mxgraph.aws4.group_aws_cloud_alt;strokeColor=#232F3E;fillColor=none;verticalAlign=top;align=left;spacingLeft=30;fontColor=#232F3E;dashed=0;labelBackgroundColor=#ffffff;" parent="1" vertex="1">
            <mxGeometry x="40" y="20.4" width="1080" height="619.6" as="geometry" />
          </mxCell>
        </object>
        <mxCell id="5m7pP_irioob-lsdHxWA-11" value="" style="edgeStyle=orthogonalEdgeStyle;rounded=0;orthogonalLoop=1;jettySize=auto;html=1;" parent="1" source="5m7pP_irioob-lsdHxWA-1" edge="1">
          <mxGeometry relative="1" as="geometry">
            <mxPoint x="725" y="240" as="targetPoint" />
          </mxGeometry>
        </mxCell>
        <mxCell id="5m7pP_irioob-lsdHxWA-1" value="&lt;font style=&quot;font-size: 10px&quot;&gt;Crop Reference Data Pump&lt;br&gt;Runs every 10 minutes&lt;/font&gt;" style="outlineConnect=0;dashed=0;verticalLabelPosition=bottom;verticalAlign=top;align=center;html=1;shape=mxgraph.aws3.ecs;fillColor=#F58534;gradientColor=none;" parent="1" vertex="1">
          <mxGeometry x="690" y="100" width="70" height="60" as="geometry" />
        </mxCell>
        <object label="EntitySyncChangeQueue " wewqeqwerqwerqwe="wewe" id="5m7pP_irioob-lsdHxWA-2">
          <mxCell style="outlineConnect=0;dashed=0;verticalLabelPosition=bottom;verticalAlign=top;align=center;html=1;shape=mxgraph.aws3.sqs;fillColor=#D9A741;gradientColor=none;" parent="1" vertex="1">
            <mxGeometry x="80" y="140" width="76.5" height="93" as="geometry" />
          </mxCell>
        </object>
        <mxCell id="5m7pP_irioob-lsdHxWA-4" value="&lt;font style=&quot;font-size: 11px&quot;&gt;Postgres Changelog Tables&lt;/font&gt;" style="outlineConnect=0;dashed=0;verticalLabelPosition=bottom;verticalAlign=top;align=center;html=1;shape=mxgraph.aws3.rds;fillColor=#2E73B8;gradientColor=none;" parent="1" vertex="1">
          <mxGeometry x="90" y="490" width="62" height="71" as="geometry" />
        </mxCell>
        <mxCell id="5m7pP_irioob-lsdHxWA-18" value="" style="edgeStyle=orthogonalEdgeStyle;rounded=0;orthogonalLoop=1;jettySize=auto;html=1;" parent="1" source="5m7pP_irioob-lsdHxWA-5" edge="1" target="5m7pP_irioob-lsdHxWA-2">
          <mxGeometry relative="1" as="geometry">
            <mxPoint x="268.25" y="176.89999999999998" as="targetPoint" />
          </mxGeometry>
        </mxCell>
        <mxCell id="5m7pP_irioob-lsdHxWA-5" value="&lt;font style=&quot;font-size: 11px&quot;&gt;Reference Data Change &lt;b&gt;SNS topic&lt;/b&gt;&lt;/font&gt;" style="outlineConnect=0;dashed=0;verticalLabelPosition=bottom;verticalAlign=top;align=center;html=1;shape=mxgraph.aws3.sns;fillColor=#D9A741;gradientColor=none;" parent="1" vertex="1">
          <mxGeometry x="230" y="20.399999999999977" width="76.5" height="76.5" as="geometry" />
        </mxCell>
        <mxCell id="5m7pP_irioob-lsdHxWA-6" value="&lt;font style=&quot;font-size: 10px&quot;&gt;Products&lt;br&gt;&amp;nbsp;Microservice&lt;/font&gt;" style="aspect=fixed;perimeter=ellipsePerimeter;html=1;align=center;shadow=0;dashed=0;fontColor=#4277BB;labelBackgroundColor=#ffffff;fontSize=12;spacingTop=3;image;image=img/lib/ibm/applications/microservice.svg;" parent="1" vertex="1">
          <mxGeometry x="980" y="96.9" width="93.3" height="68.1" as="geometry" />
        </mxCell>
        <mxCell id="5m7pP_irioob-lsdHxWA-8" value="" style="endArrow=classic;startArrow=classic;html=1;entryX=0;entryY=0.5;entryDx=0;entryDy=0;" parent="1" source="5m7pP_irioob-lsdHxWA-1" target="5m7pP_irioob-lsdHxWA-6" edge="1">
          <mxGeometry width="50" height="50" relative="1" as="geometry">
            <mxPoint x="830" y="160" as="sourcePoint" />
            <mxPoint x="880" y="110" as="targetPoint" />
          </mxGeometry>
        </mxCell>
        <mxCell id="5m7pP_irioob-lsdHxWA-9" value="&lt;font style=&quot;font-size: 11px&quot;&gt;cropTypes&lt;/font&gt;" style="edgeLabel;html=1;align=center;verticalAlign=middle;resizable=0;points=[];" parent="5m7pP_irioob-lsdHxWA-8" vertex="1" connectable="0">
          <mxGeometry x="-0.2526" relative="1" as="geometry">
            <mxPoint x="19" as="offset" />
          </mxGeometry>
        </mxCell>
        <mxCell id="5m7pP_irioob-lsdHxWA-14" style="edgeStyle=orthogonalEdgeStyle;rounded=0;orthogonalLoop=1;jettySize=auto;html=1;" parent="1" source="6iRd3tWvt0DVXEkDE1pH-2" edge="1" target="5m7pP_irioob-lsdHxWA-4">
          <mxGeometry relative="1" as="geometry">
            <mxPoint x="488" y="230" as="targetPoint" />
            <Array as="points">
              <mxPoint x="121" y="420" />
              <mxPoint x="121" y="420" />
            </Array>
          </mxGeometry>
        </mxCell>
        <mxCell id="5m7pP_irioob-lsdHxWA-15" style="edgeStyle=orthogonalEdgeStyle;rounded=0;orthogonalLoop=1;jettySize=auto;html=1;" parent="1" source="5m7pP_irioob-lsdHxWA-12" edge="1">
          <mxGeometry relative="1" as="geometry">
            <mxPoint x="700" y="283" as="targetPoint" />
            <Array as="points">
              <mxPoint x="650" y="283" />
              <mxPoint x="650" y="283" />
            </Array>
          </mxGeometry>
        </mxCell>
        <mxCell id="5m7pP_irioob-lsdHxWA-12" value="&lt;font style=&quot;font-size: 10px&quot;&gt;Reference Data Service&lt;/font&gt;" style="outlineConnect=0;dashed=0;verticalLabelPosition=bottom;verticalAlign=top;align=center;html=1;shape=mxgraph.aws3.ec2;fillColor=#F58534;gradientColor=none;" parent="1" vertex="1">
          <mxGeometry x="390" y="246.45000000000002" width="56.5" height="73" as="geometry" />
        </mxCell>
        <mxCell id="5m7pP_irioob-lsdHxWA-21" style="edgeStyle=orthogonalEdgeStyle;rounded=0;orthogonalLoop=1;jettySize=auto;html=1;" parent="1" source="5m7pP_irioob-lsdHxWA-1" target="5m7pP_irioob-lsdHxWA-5" edge="1">
          <mxGeometry relative="1" as="geometry">
            <mxPoint x="720" y="30" as="sourcePoint" />
            <Array as="points">
              <mxPoint x="710" y="50" />
            </Array>
          </mxGeometry>
        </mxCell>
        <mxCell id="6iRd3tWvt0DVXEkDE1pH-1" value="ReferenceDataChangesOccurredEvent" style="edgeLabel;html=1;align=center;verticalAlign=middle;resizable=0;points=[];" vertex="1" connectable="0" parent="5m7pP_irioob-lsdHxWA-21">
          <mxGeometry x="0.3054" y="-1" relative="1" as="geometry">
            <mxPoint as="offset" />
          </mxGeometry>
        </mxCell>
        <mxCell id="5m7pP_irioob-lsdHxWA-24" value="&lt;font style=&quot;font-size: 11px&quot;&gt;Dynamo Reference Data Store&lt;br&gt;&lt;/font&gt;" style="outlineConnect=0;dashed=0;verticalLabelPosition=bottom;verticalAlign=top;align=center;html=1;shape=mxgraph.aws3.dynamo_db;fillColor=#2E73B8;gradientColor=none;" parent="1" vertex="1">
          <mxGeometry x="700" y="248.45" width="60" height="69" as="geometry" />
        </mxCell>
        <mxCell id="6iRd3tWvt0DVXEkDE1pH-4" value="Polls" style="edgeStyle=orthogonalEdgeStyle;rounded=0;orthogonalLoop=1;jettySize=auto;html=1;" edge="1" parent="1" source="6iRd3tWvt0DVXEkDE1pH-2" target="5m7pP_irioob-lsdHxWA-2">
          <mxGeometry relative="1" as="geometry" />
        </mxCell>
        <mxCell id="6iRd3tWvt0DVXEkDE1pH-2" value="EntityChange Service" style="outlineConnect=0;dashed=0;verticalLabelPosition=bottom;verticalAlign=top;align=center;html=1;shape=mxgraph.aws3.ec2;fillColor=#F58534;gradientColor=none;" vertex="1" parent="1">
          <mxGeometry x="90" y="330.00000000000006" width="56.5" height="73" as="geometry" />
        </mxCell>
        <mxCell id="6iRd3tWvt0DVXEkDE1pH-5" value="Entity Sync Service" style="outlineConnect=0;dashed=0;verticalLabelPosition=bottom;verticalAlign=top;align=center;html=1;shape=mxgraph.aws3.ec2;fillColor=#F58534;gradientColor=none;" vertex="1" parent="1">
          <mxGeometry x="380" y="468" width="76.5" height="93" as="geometry" />
        </mxCell>
        <mxCell id="6iRd3tWvt0DVXEkDE1pH-10" value="" style="endArrow=classic;html=1;" edge="1" parent="1" source="6iRd3tWvt0DVXEkDE1pH-5" target="5m7pP_irioob-lsdHxWA-12">
          <mxGeometry width="50" height="50" relative="1" as="geometry">
            <mxPoint x="410" y="468" as="sourcePoint" />
            <mxPoint x="460" y="418" as="targetPoint" />
          </mxGeometry>
        </mxCell>
        <mxCell id="6iRd3tWvt0DVXEkDE1pH-11" value="&lt;a href=&quot;https://github.deere.com/streaming-data/reference-data-service-contract/blob/master/swagger/src/main/resources/contract.json&quot;&gt;/crop-type/{id}&lt;/a&gt;" style="edgeLabel;html=1;align=center;verticalAlign=middle;resizable=0;points=[];" vertex="1" connectable="0" parent="6iRd3tWvt0DVXEkDE1pH-10">
          <mxGeometry x="-0.1383" y="-2" relative="1" as="geometry">
            <mxPoint as="offset" />
          </mxGeometry>
        </mxCell>
      </root>
    </mxGraphModel>
  </diagram>
</mxfile>
